<svg xmlns="http://www.w3.org/2000/svg" width="36.068" height="36.082" viewBox="0 0 36.068 36.082">
  <g id="noun-attachment-4405229" transform="translate(-3.281 -3.277)">
    <g id="Group_14322" data-name="Group 14322" transform="translate(3.282 3.277)">
      <path id="Path_10604" data-name="Path 10604" d="M14.053,39.359A10.75,10.75,0,0,0,21.664,36.2L36.2,21.667A10.772,10.772,0,1,0,20.967,6.433a1.418,1.418,0,0,0,2,2A7.937,7.937,0,0,1,34.2,19.663L19.659,34.2A7.936,7.936,0,0,1,8.436,22.972L16.414,15a3.042,3.042,0,0,1,2.307-.956,3.236,3.236,0,0,1,2.3.946,3.27,3.27,0,0,1,0,4.617l-7.27,7.27a1.418,1.418,0,1,0,2,2l7.27-7.27a6.107,6.107,0,0,0,0-8.628,6.044,6.044,0,0,0-4.3-1.777,5.833,5.833,0,0,0-4.323,1.787L6.431,20.966a10.776,10.776,0,0,0,7.621,18.393Z" transform="translate(-3.282 -3.277)"/>
    </g>
  </g>
</svg>
